<svg version="1.1" xmlns="http://www.w3.org/2000/svg" xmlns:xlink="http://www.w3.org/1999/xlink" width="860" height="332"><defs/><g><text fill="#eeeeee" stroke="none" font-family="Arial" font-size="24px" font-style="normal" font-weight="normal" text-decoration="none" x="0" y="0"></text><text fill="#eeeeee" stroke="none" font-family="Arial" font-size="24px" font-style="normal" font-weight="normal" text-decoration="none" x="0" y="30"></text><text fill="#eeeeee" stroke="none" font-family="Arial" font-size="24px" font-style="normal" font-weight="normal" text-decoration="none" x="0" y="60"></text><text fill="#eeeeee" stroke="none" font-family="Arial" font-size="24px" font-style="normal" font-weight="normal" text-decoration="none" x="0" y="90"></text><text fill="#eeeeee" stroke="none" font-family="Arial" font-size="24px" font-style="normal" font-weight="normal" text-decoration="none" x="0" y="120"></text><text fill="#eeeeee" stroke="none" font-family="Arial" font-size="24px" font-style="normal" font-weight="normal" text-decoration="none" x="0" y="150"></text><text fill="#eeeeee" stroke="none" font-family="Arial" font-size="24px" font-style="normal" font-weight="normal" text-decoration="none" x="0" y="180"></text><text fill="#eeeeee" stroke="none" font-family="Arial" font-size="24px" font-style="normal" font-weight="normal" text-decoration="none" x="0" y="210"></text><text fill="#eeeeee" stroke="none" font-family="Arial" font-size="24px" font-style="normal" font-weight="normal" text-decoration="none" x="0" y="240"></text><text fill="#eeeeee" stroke="none" font-family="Arial" font-size="24px" font-style="normal" font-weight="normal" text-decoration="none" x="0" y="270"></text><text fill="#eeeeee" stroke="none" font-family="Arial" font-size="24px" font-style="normal" font-weight="normal" text-decoration="none" x="0" y="300"></text><text fill="#eeeeee" stroke="none" font-family="Arial" font-size="24px" font-style="normal" font-weight="normal" text-decoration="none" x="0" y="330"></text><text fill="#eeeeee" stroke="none" font-family="Arial" font-size="24px" font-style="normal" font-weight="normal" text-decoration="none" x="200" y="0"></text><text fill="#eeeeee" stroke="none" font-family="Arial" font-size="24px" font-style="normal" font-weight="normal" text-decoration="none" x="200" y="30"></text><text fill="#eeeeee" stroke="none" font-family="Arial" font-size="24px" font-style="normal" font-weight="normal" text-decoration="none" x="200" y="60"></text><text fill="#eeeeee" stroke="none" font-family="Arial" font-size="24px" font-style="normal" font-weight="normal" text-decoration="none" x="200" y="90"></text><text fill="#eeeeee" stroke="none" font-family="Arial" font-size="24px" font-style="normal" font-weight="normal" text-decoration="none" x="200" y="120"></text><text fill="#eeeeee" stroke="none" font-family="Arial" font-size="24px" font-style="normal" font-weight="normal" text-decoration="none" x="200" y="150"></text><text fill="#eeeeee" stroke="none" font-family="Arial" font-size="24px" font-style="normal" font-weight="normal" text-decoration="none" x="200" y="180"></text><text fill="#eeeeee" stroke="none" font-family="Arial" font-size="24px" font-style="normal" font-weight="normal" text-decoration="none" x="200" y="210"></text><text fill="#eeeeee" stroke="none" font-family="Arial" font-size="24px" font-style="normal" font-weight="normal" text-decoration="none" x="200" y="240"></text><text fill="#eeeeee" stroke="none" font-family="Arial" font-size="24px" font-style="normal" font-weight="normal" text-decoration="none" x="200" y="270"></text><text fill="#eeeeee" stroke="none" font-family="Arial" font-size="24px" font-style="normal" font-weight="normal" text-decoration="none" x="200" y="300"></text><text fill="#eeeeee" stroke="none" font-family="Arial" font-size="24px" font-style="normal" font-weight="normal" text-decoration="none" x="200" y="330"></text><text fill="#eeeeee" stroke="none" font-family="Arial" font-size="24px" font-style="normal" font-weight="normal" text-decoration="none" x="400" y="0"></text><text fill="#eeeeee" stroke="none" font-family="Arial" font-size="24px" font-style="normal" font-weight="normal" text-decoration="none" x="400" y="30"></text><text fill="#eeeeee" stroke="none" font-family="Arial" font-size="24px" font-style="normal" font-weight="normal" text-decoration="none" x="400" y="60"></text><text fill="#eeeeee" stroke="none" font-family="Arial" font-size="24px" font-style="normal" font-weight="normal" text-decoration="none" x="400" y="90"></text><text fill="#eeeeee" stroke="none" font-family="Arial" font-size="24px" font-style="normal" font-weight="normal" text-decoration="none" x="400" y="120"></text><text fill="#eeeeee" stroke="none" font-family="Arial" font-size="24px" font-style="normal" font-weight="normal" text-decoration="none" x="400" y="150"></text><text fill="#eeeeee" stroke="none" font-family="Arial" font-size="24px" font-style="normal" font-weight="normal" text-decoration="none" x="400" y="180"></text><text fill="#eeeeee" stroke="none" font-family="Arial" font-size="24px" font-style="normal" font-weight="normal" text-decoration="none" x="400" y="210"></text><text fill="#eeeeee" stroke="none" font-family="Arial" font-size="24px" font-style="normal" font-weight="normal" text-decoration="none" x="400" y="240"></text><text fill="#eeeeee" stroke="none" font-family="Arial" font-size="24px" font-style="normal" font-weight="normal" text-decoration="none" x="400" y="270"></text><text fill="#eeeeee" stroke="none" font-family="Arial" font-size="24px" font-style="normal" font-weight="normal" text-decoration="none" x="400" y="300"></text><text fill="#eeeeee" stroke="none" font-family="Arial" font-size="24px" font-style="normal" font-weight="normal" text-decoration="none" x="400" y="330"></text><text fill="#eeeeee" stroke="none" font-family="Arial" font-size="24px" font-style="normal" font-weight="normal" text-decoration="none" x="600" y="0"></text><text fill="#eeeeee" stroke="none" font-family="Arial" font-size="24px" font-style="normal" font-weight="normal" text-decoration="none" x="600" y="30"></text><text fill="#eeeeee" stroke="none" font-family="Arial" font-size="24px" font-style="normal" font-weight="normal" text-decoration="none" x="600" y="60"></text><text fill="#eeeeee" stroke="none" font-family="Arial" font-size="24px" font-style="normal" font-weight="normal" text-decoration="none" x="600" y="90"></text><text fill="#eeeeee" stroke="none" font-family="Arial" font-size="24px" font-style="normal" font-weight="normal" text-decoration="none" x="600" y="120"></text><text fill="#eeeeee" stroke="none" font-family="Arial" font-size="24px" font-style="normal" font-weight="normal" text-decoration="none" x="600" y="150"></text><text fill="#eeeeee" stroke="none" font-family="Arial" font-size="24px" font-style="normal" font-weight="normal" text-decoration="none" x="600" y="180"></text><text fill="#eeeeee" stroke="none" font-family="Arial" font-size="24px" font-style="normal" font-weight="normal" text-decoration="none" x="600" y="210"></text><text fill="#eeeeee" stroke="none" font-family="Arial" font-size="24px" font-style="normal" font-weight="normal" text-decoration="none" x="600" y="240"></text><text fill="#eeeeee" stroke="none" font-family="Arial" font-size="24px" font-style="normal" font-weight="normal" text-decoration="none" x="600" y="270"></text><text fill="#eeeeee" stroke="none" font-family="Arial" font-size="24px" font-style="normal" font-weight="normal" text-decoration="none" x="600" y="300"></text><text fill="#eeeeee" stroke="none" font-family="Arial" font-size="24px" font-style="normal" font-weight="normal" text-decoration="none" x="600" y="330"></text><text fill="#eeeeee" stroke="none" font-family="Arial" font-size="24px" font-style="normal" font-weight="normal" text-decoration="none" x="800" y="0"></text><text fill="#eeeeee" stroke="none" font-family="Arial" font-size="24px" font-style="normal" font-weight="normal" text-decoration="none" x="800" y="30"></text><text fill="#eeeeee" stroke="none" font-family="Arial" font-size="24px" font-style="normal" font-weight="normal" text-decoration="none" x="800" y="60"></text><text fill="#eeeeee" stroke="none" font-family="Arial" font-size="24px" font-style="normal" font-weight="normal" text-decoration="none" x="800" y="90"></text><text fill="#eeeeee" stroke="none" font-family="Arial" font-size="24px" font-style="normal" font-weight="normal" text-decoration="none" x="800" y="120"></text><text fill="#eeeeee" stroke="none" font-family="Arial" font-size="24px" font-style="normal" font-weight="normal" text-decoration="none" x="800" y="150"></text><text fill="#eeeeee" stroke="none" font-family="Arial" font-size="24px" font-style="normal" font-weight="normal" text-decoration="none" x="800" y="180"></text><text fill="#eeeeee" stroke="none" font-family="Arial" font-size="24px" font-style="normal" font-weight="normal" text-decoration="none" x="800" y="210"></text><text fill="#eeeeee" stroke="none" font-family="Arial" font-size="24px" font-style="normal" font-weight="normal" text-decoration="none" x="800" y="240"></text><text fill="#eeeeee" stroke="none" font-family="Arial" font-size="24px" font-style="normal" font-weight="normal" text-decoration="none" x="800" y="270"></text><text fill="#eeeeee" stroke="none" font-family="Arial" font-size="24px" font-style="normal" font-weight="normal" text-decoration="none" x="800" y="300"></text><text fill="#eeeeee" stroke="none" font-family="Arial" font-size="24px" font-style="normal" font-weight="normal" text-decoration="none" x="800" y="330"></text><g transform="translate(-3678,-1046) scale(1,1)"><rect fill="#C0C0C0" stroke="none" x="3783" y="1063" width="752" height="312" opacity="0.2"/></g><g transform="translate(-3678,-1046) scale(1,1)"><rect fill="#ffffff" stroke="none" x="3776" y="1056" width="752" height="312"/></g><g transform="translate(-3678,-1046) scale(1,1)"><path fill="none" stroke="#000000" d="M 3776 1056 L 4528 1056 L 4528 1368 L 3776 1368 L 3776 1056 Z Z" stroke-miterlimit="10"/></g><g transform="translate(-3678,-1046) scale(1,1)"><g><path fill="none" stroke="none"/><text fill="#000000" stroke="none" font-family="Arial" font-size="13px" font-style="normal" font-weight="bold" text-decoration="none" x="4097.83544921875" y="1074">UniApp Unillanos</text></g></g><g transform="translate(-3678,-1046) scale(1,1)"><path fill="#ffffff" stroke="none" d="M 3708.0211667258523 1161.6799999999998 C 3708.0211667258523 1156.8861679359998 3711.9070090507976 1153 3716.700439453125 1153 C 3721.4938698554524 1153 3725.3797121803977 1156.8861679359998 3725.3797121803977 1161.6799999999998 C 3725.3797121803977 1166.473832064 3721.4938698554524 1170.36 3716.700439453125 1170.36 C 3711.9070090507976 1170.36 3708.0211667258523 1166.473832064 3708.0211667258523 1161.6799999999998 Z"/></g><g transform="translate(-3678,-1046) scale(1,1)"><path fill="none" stroke="#000000" d="M 3708.0211667258523 1161.6799999999998 C 3708.0211667258523 1156.8861679359998 3711.9070090507976 1153 3716.700439453125 1153 C 3721.4938698554524 1153 3725.3797121803977 1156.8861679359998 3725.3797121803977 1161.6799999999998 C 3725.3797121803977 1166.473832064 3721.4938698554524 1170.36 3716.700439453125 1170.36 C 3711.9070090507976 1170.36 3708.0211667258523 1166.473832064 3708.0211667258523 1161.6799999999998 Z" stroke-miterlimit="10"/></g><g transform="translate(-3678,-1046) scale(1,1)"><path fill="none" stroke="#000000" d="M 3716.700439453125 1170.36 L 3716.700439453125 1187.64" stroke-miterlimit="10"/></g><g transform="translate(-3678,-1046) scale(1,1)"><path fill="none" stroke="#000000" d="M 3707.5106212713067 1176.84 L 3725.8902576349433 1176.84" stroke-miterlimit="10"/></g><g transform="translate(-3678,-1046) scale(1,1)"><path fill="none" stroke="#000000" d="M 3716.700439453125 1187.64 L 3703.9368030894884 1205" stroke-miterlimit="10"/></g><g transform="translate(-3678,-1046) scale(1,1)"><path fill="none" stroke="#000000" d="M 3716.700439453125 1187.64 L 3729.4640758167616 1205" stroke-miterlimit="10"/></g><g transform="translate(-3678,-1046) scale(1,1)"><g><path fill="none" stroke="none"/><text fill="#000000" stroke="none" font-family="Arial" font-size="13px" font-style="normal" font-weight="bold" text-decoration="none" x="3692.5" y="1224">Usuario</text></g></g><g transform="translate(-3678,-1046) scale(1,1)"><path fill="#C0C0C0" stroke="none" d="M 3823 1136 C 3823 1126.6111584 3867.9953776 1119 3923.5 1119 C 3979.0046224 1119 4024 1126.6111584 4024 1136 C 4024 1145.3888416 3979.0046224 1153 3923.5 1153 C 3867.9953776 1153 3823 1145.3888416 3823 1136 Z" opacity="0.2"/></g><g transform="translate(-3678,-1046) scale(1,1)"><path fill="#ffffff" stroke="none" d="M 3816 1129 C 3816 1119.6111584 3860.9953776 1112 3916.5 1112 C 3972.0046224 1112 4017 1119.6111584 4017 1129 C 4017 1138.3888416 3972.0046224 1146 3916.5 1146 C 3860.9953776 1146 3816 1138.3888416 3816 1129 Z"/></g><g transform="translate(-3678,-1046) scale(1,1)"><path fill="none" stroke="#000000" d="M 3816 1129 C 3816 1119.6111584 3860.9953776 1112 3916.5 1112 C 3972.0046224 1112 4017 1119.6111584 4017 1129 C 4017 1138.3888416 3972.0046224 1146 3916.5 1146 C 3860.9953776 1146 3816 1138.3888416 3816 1129 Z" stroke-miterlimit="10"/></g><g transform="translate(-3678,-1046) scale(1,1)"><g><path fill="none" stroke="none"/><text fill="#000000" stroke="none" font-family="Arial" font-size="13px" font-style="normal" font-weight="bold" text-decoration="none" x="3849.782958984375" y="1134.5">Visualizar Novedades</text></g></g><g transform="translate(-3678,-1046) scale(1,1)"><path fill="#C0C0C0" stroke="none" d="M 3839 1208 C 3839 1198.6111584 3874.817216 1191 3919 1191 C 3963.182784 1191 3999 1198.6111584 3999 1208 C 3999 1217.3888416 3963.182784 1225 3919 1225 C 3874.817216 1225 3839 1217.3888416 3839 1208 Z" opacity="0.2"/></g><g transform="translate(-3678,-1046) scale(1,1)"><path fill="#ffffff" stroke="none" d="M 3832 1201 C 3832 1191.6111584 3867.817216 1184 3912 1184 C 3956.182784 1184 3992 1191.6111584 3992 1201 C 3992 1210.3888416 3956.182784 1218 3912 1218 C 3867.817216 1218 3832 1210.3888416 3832 1201 Z"/></g><g transform="translate(-3678,-1046) scale(1,1)"><path fill="none" stroke="#000000" d="M 3832 1201 C 3832 1191.6111584 3867.817216 1184 3912 1184 C 3956.182784 1184 3992 1191.6111584 3992 1201 C 3992 1210.3888416 3956.182784 1218 3912 1218 C 3867.817216 1218 3832 1210.3888416 3832 1201 Z" stroke-miterlimit="10"/></g><g transform="translate(-3678,-1046) scale(1,1)"><g><path fill="none" stroke="none"/><text fill="#000000" stroke="none" font-family="Arial" font-size="13px" font-style="normal" font-weight="bold" text-decoration="none" x="3859.7333984375" y="1206.5">Visualizar Mapas</text></g></g><g transform="translate(-3678,-1046) scale(1,1)"><path fill="#C0C0C0" stroke="none" d="M 3823 1304 C 3823 1294.6111584 3869.5623808 1287 3927 1287 C 3984.4376192 1287 4031 1294.6111584 4031 1304 C 4031 1313.3888416 3984.4376192 1321 3927 1321 C 3869.5623808 1321 3823 1313.3888416 3823 1304 Z" opacity="0.2"/></g><g transform="translate(-3678,-1046) scale(1,1)"><path fill="#ffffff" stroke="none" d="M 3816 1297 C 3816 1287.6111584 3862.5623808 1280 3920 1280 C 3977.4376192 1280 4024 1287.6111584 4024 1297 C 4024 1306.3888416 3977.4376192 1314 3920 1314 C 3862.5623808 1314 3816 1306.3888416 3816 1297 Z"/></g><g transform="translate(-3678,-1046) scale(1,1)"><path fill="none" stroke="#000000" d="M 3816 1297 C 3816 1287.6111584 3862.5623808 1280 3920 1280 C 3977.4376192 1280 4024 1287.6111584 4024 1297 C 4024 1306.3888416 3977.4376192 1314 3920 1314 C 3862.5623808 1314 3816 1306.3888416 3816 1297 Z" stroke-miterlimit="10"/></g><g transform="translate(-3678,-1046) scale(1,1)"><g><path fill="none" stroke="none"/><text fill="#000000" stroke="none" font-family="Arial" font-size="13px" font-style="normal" font-weight="bold" text-decoration="none" x="3850.76611328125" y="1302.5">Visualizar Información</text></g></g><g transform="translate(-3678,-1046) scale(1,1)"><path fill="#C0C0C0" stroke="none" d="M 4103 1216 C 4103 1206.6111584 4141.055792 1199 4188 1199 C 4234.944208 1199 4273 1206.6111584 4273 1216 C 4273 1225.3888416 4234.944208 1233 4188 1233 C 4141.055792 1233 4103 1225.3888416 4103 1216 Z" opacity="0.2"/></g><g transform="translate(-3678,-1046) scale(1,1)"><path fill="#ffffff" stroke="none" d="M 4096 1209 C 4096 1199.6111584 4134.055792 1192 4181 1192 C 4227.944208 1192 4266 1199.6111584 4266 1209 C 4266 1218.3888416 4227.944208 1226 4181 1226 C 4134.055792 1226 4096 1218.3888416 4096 1209 Z"/></g><g transform="translate(-3678,-1046) scale(1,1)"><path fill="none" stroke="#000000" d="M 4096 1209 C 4096 1199.6111584 4134.055792 1192 4181 1192 C 4227.944208 1192 4266 1199.6111584 4266 1209 C 4266 1218.3888416 4227.944208 1226 4181 1226 C 4134.055792 1226 4096 1218.3888416 4096 1209 Z" stroke-miterlimit="10"/></g><g transform="translate(-3678,-1046) scale(1,1)"><g><path fill="none" stroke="none"/><text fill="#000000" stroke="none" font-family="Arial" font-size="13px" font-style="normal" font-weight="bold" text-decoration="none" x="4125.369140625" y="1214.5">Interactuar Mapas</text></g></g><g transform="translate(-3678,-1046) scale(1,1)"><path fill="#C0C0C0" stroke="none" d="M 4367 1128 C 4367 1118.6111584 4396.7730608 1111 4433.5 1111 C 4470.2269392 1111 4500 1118.6111584 4500 1128 C 4500 1137.3888416 4470.2269392 1145 4433.5 1145 C 4396.7730608 1145 4367 1137.3888416 4367 1128 Z" opacity="0.2"/></g><g transform="translate(-3678,-1046) scale(1,1)"><path fill="#ffffff" stroke="none" d="M 4360 1121 C 4360 1111.6111584 4389.7730608 1104 4426.5 1104 C 4463.2269392 1104 4493 1111.6111584 4493 1121 C 4493 1130.3888416 4463.2269392 1138 4426.5 1138 C 4389.7730608 1138 4360 1130.3888416 4360 1121 Z"/></g><g transform="translate(-3678,-1046) scale(1,1)"><path fill="none" stroke="#000000" d="M 4360 1121 C 4360 1111.6111584 4389.7730608 1104 4426.5 1104 C 4463.2269392 1104 4493 1111.6111584 4493 1121 C 4493 1130.3888416 4463.2269392 1138 4426.5 1138 C 4389.7730608 1138 4360 1130.3888416 4360 1121 Z" stroke-miterlimit="10"/></g><g transform="translate(-3678,-1046) scale(1,1)"><g><path fill="none" stroke="none"/><text fill="#000000" stroke="none" font-family="Arial" font-size="13px" font-style="normal" font-weight="bold" text-decoration="none" x="4383.865966796875" y="1126.5">Acercar Mapa</text></g></g><g transform="translate(-3678,-1046) scale(1,1)"><path fill="#C0C0C0" stroke="none" d="M 4375 1304 C 4375 1294.6111584 4400.9674816 1287 4433 1287 C 4465.0325184 1287 4491 1294.6111584 4491 1304 C 4491 1313.3888416 4465.0325184 1321 4433 1321 C 4400.9674816 1321 4375 1313.3888416 4375 1304 Z" opacity="0.2"/></g><g transform="translate(-3678,-1046) scale(1,1)"><path fill="#ffffff" stroke="none" d="M 4368 1297 C 4368 1287.6111584 4393.9674816 1280 4426 1280 C 4458.0325184 1280 4484 1287.6111584 4484 1297 C 4484 1306.3888416 4458.0325184 1314 4426 1314 C 4393.9674816 1314 4368 1306.3888416 4368 1297 Z"/></g><g transform="translate(-3678,-1046) scale(1,1)"><path fill="none" stroke="#000000" d="M 4368 1297 C 4368 1287.6111584 4393.9674816 1280 4426 1280 C 4458.0325184 1280 4484 1287.6111584 4484 1297 C 4484 1306.3888416 4458.0325184 1314 4426 1314 C 4393.9674816 1314 4368 1306.3888416 4368 1297 Z" stroke-miterlimit="10"/></g><g transform="translate(-3678,-1046) scale(1,1)"><g><path fill="none" stroke="none"/><text fill="#000000" stroke="none" font-family="Arial" font-size="13px" font-style="normal" font-weight="bold" text-decoration="none" x="4389.513671875" y="1302.5">Alejar Mapa</text></g></g><g transform="translate(-3678,-1046) scale(1,1)"><path fill="#C0C0C0" stroke="none" d="M 4375 1216 C 4375 1206.6111584 4403.2060576 1199 4438 1199 C 4472.7939424 1199 4501 1206.6111584 4501 1216 C 4501 1225.3888416 4472.7939424 1233 4438 1233 C 4403.2060576 1233 4375 1225.3888416 4375 1216 Z" opacity="0.2"/></g><g transform="translate(-3678,-1046) scale(1,1)"><path fill="#ffffff" stroke="none" d="M 4368 1209 C 4368 1199.6111584 4396.2060576 1192 4431 1192 C 4465.7939424 1192 4494 1199.6111584 4494 1209 C 4494 1218.3888416 4465.7939424 1226 4431 1226 C 4396.2060576 1226 4368 1218.3888416 4368 1209 Z"/></g><g transform="translate(-3678,-1046) scale(1,1)"><path fill="none" stroke="#000000" d="M 4368 1209 C 4368 1199.6111584 4396.2060576 1192 4431 1192 C 4465.7939424 1192 4494 1199.6111584 4494 1209 C 4494 1218.3888416 4465.7939424 1226 4431 1226 C 4396.2060576 1226 4368 1218.3888416 4368 1209 Z" stroke-miterlimit="10"/></g><g transform="translate(-3678,-1046) scale(1,1)"><g><path fill="none" stroke="none"/><text fill="#000000" stroke="none" font-family="Arial" font-size="13px" font-style="normal" font-weight="bold" text-decoration="none" x="4390.892333984375" y="1214.5">Ver Paradero</text></g></g><g transform="translate(-3678,-1046) scale(1,1)"><path fill="none" stroke="#000000" d="M 3746 1182 L 3858 1147" stroke-miterlimit="10"/></g><g transform="translate(-3678,-1046) scale(1,1)"><path fill="none" stroke="#000000" d="M 3746 1193 L 3831 1197" stroke-miterlimit="10"/></g><g transform="translate(-3678,-1046) scale(1,1)"><path fill="none" stroke="#000000" d="M 3746 1207 L 3885 1279" stroke-miterlimit="10"/></g><g transform="translate(-3678,-1046) scale(1,1)"><path fill="none" stroke="#000000" d="M 3993 1203 L 4095 1206" stroke-miterlimit="10" stroke-dasharray="3"/></g><g transform="translate(-3678,-1046) scale(1,1)"><path fill="none" stroke="#000000" d="M 4084.717962083485 1209.9089252082063 L 4095 1206 L 4084.9654737429414 1201.4935287866888" stroke-miterlimit="10"/></g><g transform="translate(-3678,-1046) scale(1,1)"><g><path fill="none" stroke="none"/><text fill="#000000" stroke="none" font-family="Arial" font-size="13px" font-style="normal" font-weight="normal" text-decoration="none" x="4007.5" y="1193">«include»</text></g></g><g transform="translate(-3678,-1046) scale(1,1)"><path fill="none" stroke="#000000" d="M 4231 1191 L 4376 1139" stroke-miterlimit="10" stroke-dasharray="3"/></g><g transform="translate(-3678,-1046) scale(1,1)"><path fill="none" stroke="#000000" d="M 4367.854875386918 1146.3930335476962 L 4376 1139 L 4365.012862997364 1138.4681913075958" stroke-miterlimit="10"/></g><g transform="translate(-3678,-1046) scale(1,1)"><g><path fill="none" stroke="none"/><text fill="#000000" stroke="none" font-family="Arial" font-size="13px" font-style="normal" font-weight="normal" text-decoration="none" x="4265.5" y="1154">«extend»</text></g></g><g transform="translate(-3678,-1046) scale(1,1)"><path fill="none" stroke="#000000" d="M 4267 1209 L 4367 1209" stroke-miterlimit="10" stroke-dasharray="3"/></g><g transform="translate(-3678,-1046) scale(1,1)"><path fill="none" stroke="#000000" d="M 4356.837325142375 1213.2095177560159 L 4367 1209 L 4356.837325142375 1204.7904822439841" stroke-miterlimit="10"/></g><g transform="translate(-3678,-1046) scale(1,1)"><g><path fill="none" stroke="none"/><text fill="#000000" stroke="none" font-family="Arial" font-size="13px" font-style="normal" font-weight="normal" text-decoration="none" x="4287.5" y="1202">«extend»</text></g></g><g transform="translate(-3678,-1046) scale(1,1)"><path fill="none" stroke="#000000" d="M 4231 1227 L 4376 1279" stroke-miterlimit="10" stroke-dasharray="3"/></g><g transform="translate(-3678,-1046) scale(1,1)"><path fill="none" stroke="#000000" d="M 4365.012862997364 1279.5318086924044 L 4376 1279 L 4367.854875386918 1271.6069664523038" stroke-miterlimit="10"/></g><g transform="translate(-3678,-1046) scale(1,1)"><g><path fill="none" stroke="none"/><text fill="#000000" stroke="none" font-family="Arial" font-size="13px" font-style="normal" font-weight="normal" text-decoration="none" x="4285.5" y="1242">«extend»</text></g></g></g></svg>