<svg version="1.1" xmlns="http://www.w3.org/2000/svg" xmlns:xlink="http://www.w3.org/1999/xlink" width="1732" height="708"><defs/><g><g transform="translate(2,-6) scale(1,1)"><path fill="#C0C0C0" stroke="none" d="M 151 145 L 684 145 L 684 422 L 151 422" opacity="0.2"/></g><g transform="translate(2,-6) scale(1,1)"><path fill="#C0C0C0" stroke="none" d="M 151 145 L 161 135 L 694 135 L 684 145" opacity="0.2"/></g><g transform="translate(2,-6) scale(1,1)"><path fill="#C0C0C0" stroke="none" d="M 694 135 L 684 145 L 684 422 L 694 412" opacity="0.2"/></g><g transform="translate(2,-6) scale(1,1)"><path fill="#ffffff" stroke="none" d="M 144 138 L 677 138 L 677 415 L 144 415"/></g><g transform="translate(2,-6) scale(1,1)"><path fill="#ffffff" stroke="none" d="M 144 138 L 154 128 L 687 128 L 677 138"/></g><g transform="translate(2,-6) scale(1,1)"><path fill="#ffffff" stroke="none" d="M 687 128 L 677 138 L 677 415 L 687 405"/></g><g transform="translate(2,-6) scale(1,1)"><path fill="none" stroke="#000000" d="M 144 138 L 677 138 L 677 415 L 144 415 L 144 138" stroke-miterlimit="10"/></g><g transform="translate(2,-6) scale(1,1)"><path fill="none" stroke="#000000" d="M 144 138 L 154 128 L 687 128 L 677 138 L 144 138" stroke-miterlimit="10"/></g><g transform="translate(2,-6) scale(1,1)"><path fill="none" stroke="#000000" d="M 687 128 L 677 138 L 677 415 L 687 405 L 687 128" stroke-miterlimit="10"/></g><g transform="translate(2,-6) scale(1,1)"><g><path fill="none" stroke="none"/><text fill="#000000" stroke="none" font-family="Arial" font-size="13px" font-style="normal" font-weight="normal" text-decoration="none" x="384.98095703125" y="154">«device»</text></g></g><g transform="translate(2,-6) scale(1,1)"><g><path fill="none" stroke="none"/><text fill="#000000" stroke="none" font-family="Arial" font-size="13px" font-style="normal" font-weight="bold" text-decoration="none" x="355.385009765625" y="169">:Dispositivo Movil</text></g></g><g transform="translate(2,-6) scale(1,1)"><path fill="#C0C0C0" stroke="none" d="M 183 225 L 396 225 L 396 390 L 183 390" opacity="0.2"/></g><g transform="translate(2,-6) scale(1,1)"><path fill="#C0C0C0" stroke="none" d="M 183 225 L 193 215 L 406 215 L 396 225" opacity="0.2"/></g><g transform="translate(2,-6) scale(1,1)"><path fill="#C0C0C0" stroke="none" d="M 406 215 L 396 225 L 396 390 L 406 380" opacity="0.2"/></g><g transform="translate(2,-6) scale(1,1)"><path fill="#ffffff" stroke="none" d="M 176 218 L 389 218 L 389 383 L 176 383"/></g><g transform="translate(2,-6) scale(1,1)"><path fill="#ffffff" stroke="none" d="M 176 218 L 186 208 L 399 208 L 389 218"/></g><g transform="translate(2,-6) scale(1,1)"><path fill="#ffffff" stroke="none" d="M 399 208 L 389 218 L 389 383 L 399 373"/></g><g transform="translate(2,-6) scale(1,1)"><path fill="none" stroke="#000000" d="M 176 218 L 389 218 L 389 383 L 176 383 L 176 218" stroke-miterlimit="10"/></g><g transform="translate(2,-6) scale(1,1)"><path fill="none" stroke="#000000" d="M 176 218 L 186 208 L 399 208 L 389 218 L 176 218" stroke-miterlimit="10"/></g><g transform="translate(2,-6) scale(1,1)"><path fill="none" stroke="#000000" d="M 399 208 L 389 218 L 389 383 L 399 373 L 399 208" stroke-miterlimit="10"/></g><g transform="translate(2,-6) scale(1,1)"><g><path fill="none" stroke="none"/><text fill="#000000" stroke="none" font-family="Arial" font-size="13px" font-style="normal" font-weight="normal" text-decoration="none" x="266.378662109375" y="234">«OS»</text></g></g><g transform="translate(2,-6) scale(1,1)"><g><path fill="none" stroke="none"/><text fill="#000000" stroke="none" font-family="Arial" font-size="13px" font-style="normal" font-weight="bold" text-decoration="none" x="258.088623046875" y="249">Android</text></g></g><g transform="translate(2,-6) scale(1,1)"><path fill="#C0C0C0" stroke="none" d="M 439 225 L 644 225 L 644 390 L 439 390" opacity="0.2"/></g><g transform="translate(2,-6) scale(1,1)"><path fill="#C0C0C0" stroke="none" d="M 439 225 L 449 215 L 654 215 L 644 225" opacity="0.2"/></g><g transform="translate(2,-6) scale(1,1)"><path fill="#C0C0C0" stroke="none" d="M 654 215 L 644 225 L 644 390 L 654 380" opacity="0.2"/></g><g transform="translate(2,-6) scale(1,1)"><path fill="#ffffff" stroke="none" d="M 432 218 L 637 218 L 637 383 L 432 383"/></g><g transform="translate(2,-6) scale(1,1)"><path fill="#ffffff" stroke="none" d="M 432 218 L 442 208 L 647 208 L 637 218"/></g><g transform="translate(2,-6) scale(1,1)"><path fill="#ffffff" stroke="none" d="M 647 208 L 637 218 L 637 383 L 647 373"/></g><g transform="translate(2,-6) scale(1,1)"><path fill="none" stroke="#000000" d="M 432 218 L 637 218 L 637 383 L 432 383 L 432 218" stroke-miterlimit="10"/></g><g transform="translate(2,-6) scale(1,1)"><path fill="none" stroke="#000000" d="M 432 218 L 442 208 L 647 208 L 637 218 L 432 218" stroke-miterlimit="10"/></g><g transform="translate(2,-6) scale(1,1)"><path fill="none" stroke="#000000" d="M 647 208 L 637 218 L 637 383 L 647 373 L 647 208" stroke-miterlimit="10"/></g><g transform="translate(2,-6) scale(1,1)"><g><path fill="none" stroke="none"/><text fill="#000000" stroke="none" font-family="Arial" font-size="13px" font-style="normal" font-weight="normal" text-decoration="none" x="518.378662109375" y="234">«OS»</text></g></g><g transform="translate(2,-6) scale(1,1)"><g><path fill="none" stroke="none"/><text fill="#000000" stroke="none" font-family="Arial" font-size="13px" font-style="normal" font-weight="bold" text-decoration="none" x="523.802734375" y="249">iOS</text></g></g><g transform="translate(2,-6) scale(1,1)"><rect fill="#C0C0C0" stroke="none" x="241" y="279" width="98.44091796875" height="72" opacity="0.2"/></g><g transform="translate(2,-6) scale(1,1)"><rect fill="#ffffff" stroke="none" x="234" y="272" width="98.44091796875" height="72"/></g><g transform="translate(2,-6) scale(1,1)"><path fill="none" stroke="#000000" d="M 234 272 L 332.44091796875 272 L 332.44091796875 344 L 234 344 L 234 272 Z Z" stroke-miterlimit="10"/></g><g transform="translate(2,-6) scale(1,1)"><rect fill="#ffffff" stroke="none" x="224" y="279" width="20" height="10"/></g><g transform="translate(2,-6) scale(1,1)"><path fill="none" stroke="#000000" d="M 224 279 L 244 279 L 244 289 L 224 289 L 224 279 Z Z" stroke-miterlimit="10"/></g><g transform="translate(2,-6) scale(1,1)"><rect fill="#ffffff" stroke="none" x="224" y="299" width="20" height="10"/></g><g transform="translate(2,-6) scale(1,1)"><path fill="none" stroke="#000000" d="M 224 299 L 244 299 L 244 309 L 224 309 L 224 299 Z Z" stroke-miterlimit="10"/></g><g transform="translate(2,-6) scale(1,1)"><g><path fill="none" stroke="none"/><text fill="#000000" stroke="none" font-family="Arial" font-size="13px" font-style="normal" font-weight="normal" text-decoration="none" x="248.830078125" y="287.5">«component»</text></g></g><g transform="translate(2,-6) scale(1,1)"><g><path fill="none" stroke="none"/><text fill="#000000" stroke="none" font-family="Arial" font-size="13px" font-style="normal" font-weight="bold" text-decoration="none" x="255.352294921875" y="303">Aplicacion</text></g></g><g transform="translate(2,-6) scale(1,1)"><rect fill="#C0C0C0" stroke="none" x="505" y="279" width="98.44091796875" height="72" opacity="0.2"/></g><g transform="translate(2,-6) scale(1,1)"><rect fill="#ffffff" stroke="none" x="498" y="272" width="98.44091796875" height="72"/></g><g transform="translate(2,-6) scale(1,1)"><path fill="none" stroke="#000000" d="M 498 272 L 596.44091796875 272 L 596.44091796875 344 L 498 344 L 498 272 Z Z" stroke-miterlimit="10"/></g><g transform="translate(2,-6) scale(1,1)"><rect fill="#ffffff" stroke="none" x="488" y="279" width="20" height="10"/></g><g transform="translate(2,-6) scale(1,1)"><path fill="none" stroke="#000000" d="M 488 279 L 508 279 L 508 289 L 488 289 L 488 279 Z Z" stroke-miterlimit="10"/></g><g transform="translate(2,-6) scale(1,1)"><rect fill="#ffffff" stroke="none" x="488" y="299" width="20" height="10"/></g><g transform="translate(2,-6) scale(1,1)"><path fill="none" stroke="#000000" d="M 488 299 L 508 299 L 508 309 L 488 309 L 488 299 Z Z" stroke-miterlimit="10"/></g><g transform="translate(2,-6) scale(1,1)"><g><path fill="none" stroke="none"/><text fill="#000000" stroke="none" font-family="Arial" font-size="13px" font-style="normal" font-weight="normal" text-decoration="none" x="512.830078125" y="287.5">«component»</text></g></g><g transform="translate(2,-6) scale(1,1)"><g><path fill="none" stroke="none"/><text fill="#000000" stroke="none" font-family="Arial" font-size="13px" font-style="normal" font-weight="bold" text-decoration="none" x="519.352294921875" y="303">Aplicacion</text></g></g><g transform="translate(2,-6) scale(1,1)"><path fill="#C0C0C0" stroke="none" d="M 903 129 L 1332 129 L 1332 454 L 903 454" opacity="0.2"/></g><g transform="translate(2,-6) scale(1,1)"><path fill="#C0C0C0" stroke="none" d="M 903 129 L 913 119 L 1342 119 L 1332 129" opacity="0.2"/></g><g transform="translate(2,-6) scale(1,1)"><path fill="#C0C0C0" stroke="none" d="M 1342 119 L 1332 129 L 1332 454 L 1342 444" opacity="0.2"/></g><g transform="translate(2,-6) scale(1,1)"><path fill="#ffffff" stroke="none" d="M 896 122 L 1325 122 L 1325 447 L 896 447"/></g><g transform="translate(2,-6) scale(1,1)"><path fill="#ffffff" stroke="none" d="M 896 122 L 906 112 L 1335 112 L 1325 122"/></g><g transform="translate(2,-6) scale(1,1)"><path fill="#ffffff" stroke="none" d="M 1335 112 L 1325 122 L 1325 447 L 1335 437"/></g><g transform="translate(2,-6) scale(1,1)"><path fill="none" stroke="#000000" d="M 896 122 L 1325 122 L 1325 447 L 896 447 L 896 122" stroke-miterlimit="10"/></g><g transform="translate(2,-6) scale(1,1)"><path fill="none" stroke="#000000" d="M 896 122 L 906 112 L 1335 112 L 1325 122 L 896 122" stroke-miterlimit="10"/></g><g transform="translate(2,-6) scale(1,1)"><path fill="none" stroke="#000000" d="M 1335 112 L 1325 122 L 1325 447 L 1335 437 L 1335 112" stroke-miterlimit="10"/></g><g transform="translate(2,-6) scale(1,1)"><g><path fill="none" stroke="none"/><text fill="#000000" stroke="none" font-family="Arial" font-size="13px" font-style="normal" font-weight="normal" text-decoration="none" x="1084.98095703125" y="138">«device»</text></g></g><g transform="translate(2,-6) scale(1,1)"><g><path fill="none" stroke="none"/><text fill="#000000" stroke="none" font-family="Arial" font-size="13px" font-style="normal" font-weight="bold" text-decoration="none" x="1073.793212890625" y="153">ServidorAPI</text></g></g><g transform="translate(2,-6) scale(1,1)"><rect fill="#C0C0C0" stroke="none" x="961" y="191" width="102.09716796875" height="88" opacity="0.2"/></g><g transform="translate(2,-6) scale(1,1)"><rect fill="#ffffff" stroke="none" x="954" y="184" width="102.09716796875" height="88"/></g><g transform="translate(2,-6) scale(1,1)"><path fill="none" stroke="#000000" d="M 954 184 L 1056.09716796875 184 L 1056.09716796875 272 L 954 272 L 954 184 Z Z" stroke-miterlimit="10"/></g><g transform="translate(2,-6) scale(1,1)"><rect fill="#ffffff" stroke="none" x="944" y="191" width="20" height="10"/></g><g transform="translate(2,-6) scale(1,1)"><path fill="none" stroke="#000000" d="M 944 191 L 964 191 L 964 201 L 944 201 L 944 191 Z Z" stroke-miterlimit="10"/></g><g transform="translate(2,-6) scale(1,1)"><rect fill="#ffffff" stroke="none" x="944" y="211" width="20" height="10"/></g><g transform="translate(2,-6) scale(1,1)"><path fill="none" stroke="#000000" d="M 944 211 L 964 211 L 964 221 L 944 221 L 944 211 Z Z" stroke-miterlimit="10"/></g><g transform="translate(2,-6) scale(1,1)"><g><path fill="none" stroke="none"/><text fill="#000000" stroke="none" font-family="Arial" font-size="13px" font-style="normal" font-weight="normal" text-decoration="none" x="970.658203125" y="199.5">«component»</text></g></g><g transform="translate(2,-6) scale(1,1)"><g><path fill="none" stroke="none"/><text fill="#000000" stroke="none" font-family="Arial" font-size="13px" font-style="normal" font-weight="bold" text-decoration="none" x="968.5" y="215">Servicios API</text></g></g><g transform="translate(2,-6) scale(1,1)"><rect fill="#C0C0C0" stroke="none" x="953" y="327" width="111.46630859375" height="72" opacity="0.2"/></g><g transform="translate(2,-6) scale(1,1)"><rect fill="#ffffff" stroke="none" x="946" y="320" width="111.46630859375" height="72"/></g><g transform="translate(2,-6) scale(1,1)"><path fill="none" stroke="#000000" d="M 946 320 L 1057.46630859375 320 L 1057.46630859375 392 L 946 392 L 946 320 Z Z" stroke-miterlimit="10"/></g><g transform="translate(2,-6) scale(1,1)"><rect fill="#ffffff" stroke="none" x="936" y="327" width="20" height="10"/></g><g transform="translate(2,-6) scale(1,1)"><path fill="none" stroke="#000000" d="M 936 327 L 956 327 L 956 337 L 936 337 L 936 327 Z Z" stroke-miterlimit="10"/></g><g transform="translate(2,-6) scale(1,1)"><rect fill="#ffffff" stroke="none" x="936" y="347" width="20" height="10"/></g><g transform="translate(2,-6) scale(1,1)"><path fill="none" stroke="#000000" d="M 936 347 L 956 347 L 956 357 L 936 357 L 936 347 Z Z" stroke-miterlimit="10"/></g><g transform="translate(2,-6) scale(1,1)"><g><path fill="none" stroke="none"/><text fill="#000000" stroke="none" font-family="Arial" font-size="13px" font-style="normal" font-weight="normal" text-decoration="none" x="967.3427734375" y="335.5">«component»</text></g></g><g transform="translate(2,-6) scale(1,1)"><g><path fill="none" stroke="none"/><text fill="#000000" stroke="none" font-family="Arial" font-size="13px" font-style="normal" font-weight="bold" text-decoration="none" x="960.5" y="351">Facebook Post</text></g></g><g transform="translate(2,-6) scale(1,1)"><path fill="none" stroke="#000000" d="M 999 273 L 997 319" stroke-miterlimit="10" stroke-dasharray="3"/></g><g transform="translate(2,-6) scale(1,1)"><path fill="none" stroke="#000000" d="M 993.235893749185 308.6640673312673 L 997 319 L 1001.6469830248906 309.02976686499363" stroke-miterlimit="10"/></g><g transform="translate(2,-6) scale(1,1)"><path fill="#C0C0C0" stroke="none" d="M 774.7099609375 210.5 C 774.7099609375 204.1487248 779.8586857375 199 786.2099609375 199 C 792.5612361375 199 797.7099609375 204.1487248 797.7099609375 210.5 C 797.7099609375 216.8512752 792.5612361375 222 786.2099609375 222 C 779.8586857375 222 774.7099609375 216.8512752 774.7099609375 210.5 Z" opacity="0.2"/></g><g transform="translate(2,-6) scale(1,1)"><path fill="none" stroke="#000000" d="M 785.9 212.2 A 11.5 11.5 0 0 1 772.1 193.8" stroke-miterlimit="10"/></g><g transform="translate(2,-6) scale(1,1)"><path fill="none" stroke="#000000" d="M 790.5 203 A 11.5 11.5 0 0 1 767.5 203" stroke-miterlimit="10"/></g><g transform="translate(2,-6) scale(1,1)"><path fill="#ffffff" stroke="none" d="M 770.7099609375 203.5 C 770.7099609375 198.8055792 774.5155401375 195 779.2099609375 195 C 783.9043817375 195 787.7099609375 198.8055792 787.7099609375 203.5 C 787.7099609375 208.1944208 783.9043817375 212 779.2099609375 212 C 774.5155401375 212 770.7099609375 208.1944208 770.7099609375 203.5 Z"/></g><g transform="translate(2,-6) scale(1,1)"><path fill="none" stroke="#000000" d="M 770.7099609375 203.5 C 770.7099609375 198.8055792 774.5155401375 195 779.2099609375 195 C 783.9043817375 195 787.7099609375 198.8055792 787.7099609375 203.5 C 787.7099609375 208.1944208 783.9043817375 212 779.2099609375 212 C 774.5155401375 212 770.7099609375 208.1944208 770.7099609375 203.5 Z" stroke-miterlimit="10"/></g><g transform="translate(2,-6) scale(1,1)"><g><path fill="none" stroke="none"/><text fill="#000000" stroke="none" font-family="Arial" font-size="13px" font-style="normal" font-weight="bold" text-decoration="none" x="749.233154296875" y="233">REST API</text></g></g><g transform="translate(2,-6) scale(1,1)"><path fill="none" stroke="#000000" d="M 943 225 L 790.7099609375 207.879150390625" stroke-miterlimit="10"/></g><g transform="translate(2,-6) scale(1,1)"><path fill="none" stroke="#000000" d="M 597 286 L 767.7099609375 211.467529296875" stroke-miterlimit="10"/></g><g transform="translate(2,-6) scale(1,1)"><path fill="none" stroke="#000000" d="M 279 345 L 280 456 L 776 456 L 779 215" stroke-miterlimit="10"/></g><g transform="translate(2,-6) scale(1,1)"><path fill="#C0C0C0" stroke="none" d="M 1047 577 L 1185.05712890625 577 L 1185.05712890625 710 L 1047 710" opacity="0.2"/></g><g transform="translate(2,-6) scale(1,1)"><path fill="#C0C0C0" stroke="none" d="M 1047 577 L 1057 567 L 1195.05712890625 567 L 1185.05712890625 577" opacity="0.2"/></g><g transform="translate(2,-6) scale(1,1)"><path fill="#C0C0C0" stroke="none" d="M 1195.05712890625 567 L 1185.05712890625 577 L 1185.05712890625 710 L 1195.05712890625 700" opacity="0.2"/></g><g transform="translate(2,-6) scale(1,1)"><path fill="#ffffff" stroke="none" d="M 1040 570 L 1178.05712890625 570 L 1178.05712890625 703 L 1040 703"/></g><g transform="translate(2,-6) scale(1,1)"><path fill="#ffffff" stroke="none" d="M 1040 570 L 1050 560 L 1188.05712890625 560 L 1178.05712890625 570"/></g><g transform="translate(2,-6) scale(1,1)"><path fill="#ffffff" stroke="none" d="M 1188.05712890625 560 L 1178.05712890625 570 L 1178.05712890625 703 L 1188.05712890625 693"/></g><g transform="translate(2,-6) scale(1,1)"><path fill="none" stroke="#000000" d="M 1040 570 L 1178.05712890625 570 L 1178.05712890625 703 L 1040 703 L 1040 570" stroke-miterlimit="10"/></g><g transform="translate(2,-6) scale(1,1)"><path fill="none" stroke="#000000" d="M 1040 570 L 1050 560 L 1188.05712890625 560 L 1178.05712890625 570 L 1040 570" stroke-miterlimit="10"/></g><g transform="translate(2,-6) scale(1,1)"><path fill="none" stroke="#000000" d="M 1188.05712890625 560 L 1178.05712890625 570 L 1178.05712890625 703 L 1188.05712890625 693 L 1188.05712890625 560" stroke-miterlimit="10"/></g><g transform="translate(2,-6) scale(1,1)"><g><path fill="none" stroke="none"/><text fill="#000000" stroke="none" font-family="Arial" font-size="13px" font-style="normal" font-weight="normal" text-decoration="none" x="1083.509521484375" y="586">«device»</text></g></g><g transform="translate(2,-6) scale(1,1)"><g><path fill="none" stroke="none"/><text fill="#000000" stroke="none" font-family="Arial" font-size="13px" font-style="normal" font-weight="bold" text-decoration="none" x="1044.5" y="601">Facebook API Server</text></g></g><g transform="translate(2,-6) scale(1,1)"><path fill="none" stroke="#000000" d="M 1115 449 L 1114 559" stroke-miterlimit="10"/></g><g transform="translate(2,-6) scale(1,1)"><g><path fill="none" stroke="none"/><text fill="#000000" stroke="none" font-family="Arial" font-size="13px" font-style="normal" font-weight="normal" text-decoration="none" x="1123.78271484375" y="515">+REST</text></g></g><g transform="translate(2,-6) scale(1,1)"><path fill="#C0C0C0" stroke="none" d="M 15 601 L 195.67529296875 601 L 195.67529296875 702 L 15 702" opacity="0.2"/></g><g transform="translate(2,-6) scale(1,1)"><path fill="#C0C0C0" stroke="none" d="M 15 601 L 25 591 L 205.67529296875 591 L 195.67529296875 601" opacity="0.2"/></g><g transform="translate(2,-6) scale(1,1)"><path fill="#C0C0C0" stroke="none" d="M 205.67529296875 591 L 195.67529296875 601 L 195.67529296875 702 L 205.67529296875 692" opacity="0.2"/></g><g transform="translate(2,-6) scale(1,1)"><path fill="#ffffff" stroke="none" d="M 8 594 L 188.67529296875 594 L 188.67529296875 695 L 8 695"/></g><g transform="translate(2,-6) scale(1,1)"><path fill="#ffffff" stroke="none" d="M 8 594 L 18 584 L 198.67529296875 584 L 188.67529296875 594"/></g><g transform="translate(2,-6) scale(1,1)"><path fill="#ffffff" stroke="none" d="M 198.67529296875 584 L 188.67529296875 594 L 188.67529296875 695 L 198.67529296875 685"/></g><g transform="translate(2,-6) scale(1,1)"><path fill="none" stroke="#000000" d="M 8 594 L 188.67529296875 594 L 188.67529296875 695 L 8 695 L 8 594" stroke-miterlimit="10"/></g><g transform="translate(2,-6) scale(1,1)"><path fill="none" stroke="#000000" d="M 8 594 L 18 584 L 198.67529296875 584 L 188.67529296875 594 L 8 594" stroke-miterlimit="10"/></g><g transform="translate(2,-6) scale(1,1)"><path fill="none" stroke="#000000" d="M 198.67529296875 584 L 188.67529296875 594 L 188.67529296875 695 L 198.67529296875 685 L 198.67529296875 584" stroke-miterlimit="10"/></g><g transform="translate(2,-6) scale(1,1)"><g><path fill="none" stroke="none"/><text fill="#000000" stroke="none" font-family="Arial" font-size="13px" font-style="normal" font-weight="normal" text-decoration="none" x="72.818603515625" y="610">«device»</text></g></g><g transform="translate(2,-6) scale(1,1)"><g><path fill="none" stroke="none"/><text fill="#000000" stroke="none" font-family="Arial" font-size="13px" font-style="normal" font-weight="bold" text-decoration="none" x="12.5" y="625">OpenStreetMaps API Server</text></g></g><g transform="translate(2,-6) scale(1,1)"><path fill="none" stroke="#000000" d="M 143 272 L 104 272 L 103 583" stroke-miterlimit="10"/></g><g transform="translate(2,-6) scale(1,1)"><g><path fill="none" stroke="none"/><text fill="#000000" stroke="none" font-family="Arial" font-size="13px" font-style="normal" font-weight="normal" text-decoration="none" x="42.78271484375" y="435">+REST</text></g></g><g transform="translate(2,-6) scale(1,1)"><path fill="#C0C0C0" stroke="none" d="M 1551 193 L 1704.9453125 193 L 1704.9453125 382 L 1551 382" opacity="0.2"/></g><g transform="translate(2,-6) scale(1,1)"><path fill="#C0C0C0" stroke="none" d="M 1551 193 L 1561 183 L 1714.9453125 183 L 1704.9453125 193" opacity="0.2"/></g><g transform="translate(2,-6) scale(1,1)"><path fill="#C0C0C0" stroke="none" d="M 1714.9453125 183 L 1704.9453125 193 L 1704.9453125 382 L 1714.9453125 372" opacity="0.2"/></g><g transform="translate(2,-6) scale(1,1)"><path fill="#ffffff" stroke="none" d="M 1544 186 L 1697.9453125 186 L 1697.9453125 375 L 1544 375"/></g><g transform="translate(2,-6) scale(1,1)"><path fill="#ffffff" stroke="none" d="M 1544 186 L 1554 176 L 1707.9453125 176 L 1697.9453125 186"/></g><g transform="translate(2,-6) scale(1,1)"><path fill="#ffffff" stroke="none" d="M 1707.9453125 176 L 1697.9453125 186 L 1697.9453125 375 L 1707.9453125 365"/></g><g transform="translate(2,-6) scale(1,1)"><path fill="none" stroke="#000000" d="M 1544 186 L 1697.9453125 186 L 1697.9453125 375 L 1544 375 L 1544 186" stroke-miterlimit="10"/></g><g transform="translate(2,-6) scale(1,1)"><path fill="none" stroke="#000000" d="M 1544 186 L 1554 176 L 1707.9453125 176 L 1697.9453125 186 L 1544 186" stroke-miterlimit="10"/></g><g transform="translate(2,-6) scale(1,1)"><path fill="none" stroke="#000000" d="M 1707.9453125 176 L 1697.9453125 186 L 1697.9453125 375 L 1707.9453125 365 L 1707.9453125 176" stroke-miterlimit="10"/></g><g transform="translate(2,-6) scale(1,1)"><g><path fill="none" stroke="none"/><text fill="#000000" stroke="none" font-family="Arial" font-size="13px" font-style="normal" font-weight="normal" text-decoration="none" x="1595.45361328125" y="202">«device»</text></g></g><g transform="translate(2,-6) scale(1,1)"><g><path fill="none" stroke="none"/><text fill="#000000" stroke="none" font-family="Arial" font-size="13px" font-style="normal" font-weight="bold" text-decoration="none" x="1548.5" y="217">Servidor Base de Datos</text></g></g><g transform="translate(2,-6) scale(1,1)"><path fill="none" stroke="#000000" d="M 1337 278 L 1543 277" stroke-miterlimit="10"/></g><g transform="translate(2,-6) scale(1,1)"><g><path fill="none" stroke="none"/><text fill="#000000" stroke="none" font-family="Arial" font-size="13px" font-style="normal" font-weight="normal" text-decoration="none" x="1422.736328125" y="267">+SQL</text></g></g><g transform="translate(2,-6) scale(1,1)"><path fill="#ffffff" stroke="none" d="M 1528 448 L 1709 448 L 1719 458 L 1719 527 L 1528 527 L 1528 448"/></g><g transform="translate(2,-6) scale(1,1)"><path fill="none" stroke="#000000" d="M 1528 448 L 1709 448 L 1719 458 L 1719 527 L 1528 527 L 1528 448 L 1528 448" stroke-miterlimit="10"/></g><g transform="translate(2,-6) scale(1,1)"><path fill="none" stroke="#000000" d="M 1709 448 L 1709 458 L 1719 458 L 1709 448" stroke-miterlimit="10"/></g><g transform="translate(2,-6) scale(1,1)"><g><path fill="none" stroke="none"/><text fill="#000000" stroke="none" font-family="Arial" font-size="13px" font-style="normal" font-weight="normal" text-decoration="none" x="1533" y="463">Almacena los post optenidos</text><text fill="#000000" stroke="none" font-family="Arial" font-size="13px" font-style="normal" font-weight="normal" text-decoration="none" x="1533" y="476">de la API de Facebook y la</text><text fill="#000000" stroke="none" font-family="Arial" font-size="13px" font-style="normal" font-weight="normal" text-decoration="none" x="1533" y="489">información de las paradas de</text><text fill="#000000" stroke="none" font-family="Arial" font-size="13px" font-style="normal" font-weight="normal" text-decoration="none" x="1533" y="502">las rutas universitarias</text></g></g><g transform="translate(2,-6) scale(1,1)"><path fill="none" stroke="#000000" d="M 1624 447 L 1625 377" stroke-miterlimit="10" stroke-dasharray="3"/></g><g transform="translate(2,-6) scale(1,1)"><path fill="#ffffff" stroke="none" d="M 936 464 L 1045 464 L 1055 474 L 1055 535 L 936 535 L 936 464"/></g><g transform="translate(2,-6) scale(1,1)"><path fill="none" stroke="#000000" d="M 936 464 L 1045 464 L 1055 474 L 1055 535 L 936 535 L 936 464 L 936 464" stroke-miterlimit="10"/></g><g transform="translate(2,-6) scale(1,1)"><path fill="none" stroke="#000000" d="M 1045 464 L 1045 474 L 1055 474 L 1045 464" stroke-miterlimit="10"/></g><g transform="translate(2,-6) scale(1,1)"><g><path fill="none" stroke="none"/><text fill="#000000" stroke="none" font-family="Arial" font-size="13px" font-style="normal" font-weight="normal" text-decoration="none" x="941" y="479">Se conecta con la</text><text fill="#000000" stroke="none" font-family="Arial" font-size="13px" font-style="normal" font-weight="normal" text-decoration="none" x="941" y="492">API Facebook</text><text fill="#000000" stroke="none" font-family="Arial" font-size="13px" font-style="normal" font-weight="normal" text-decoration="none" x="941" y="505">para obtener los</text><text fill="#000000" stroke="none" font-family="Arial" font-size="13px" font-style="normal" font-weight="normal" text-decoration="none" x="941" y="517">post</text></g></g><g transform="translate(2,-6) scale(1,1)"><path fill="none" stroke="#000000" d="M 996 393 L 996 463" stroke-miterlimit="10" stroke-dasharray="3"/></g><g transform="translate(2,-6) scale(1,1)"><path fill="#ffffff" stroke="none" d="M 240 608 L 349 608 L 359 618 L 359 663 L 240 663 L 240 608"/></g><g transform="translate(2,-6) scale(1,1)"><path fill="none" stroke="#000000" d="M 240 608 L 349 608 L 359 618 L 359 663 L 240 663 L 240 608 L 240 608" stroke-miterlimit="10"/></g><g transform="translate(2,-6) scale(1,1)"><path fill="none" stroke="#000000" d="M 349 608 L 349 618 L 359 618 L 349 608" stroke-miterlimit="10"/></g><g transform="translate(2,-6) scale(1,1)"><g><path fill="none" stroke="none"/><text fill="#000000" stroke="none" font-family="Arial" font-size="13px" font-style="normal" font-weight="normal" text-decoration="none" x="245" y="623">Servicio para crear</text><text fill="#000000" stroke="none" font-family="Arial" font-size="13px" font-style="normal" font-weight="normal" text-decoration="none" x="245" y="633">mapas</text></g></g><g transform="translate(2,-6) scale(1,1)"><path fill="none" stroke="#000000" d="M 239 637 L 201 638" stroke-miterlimit="10" stroke-dasharray="3"/></g><g transform="translate(2,-6) scale(1,1)"><path fill="#ffffff" stroke="none" d="M 944 16 L 1045 16 L 1055 26 L 1055 91 L 944 91 L 944 16"/></g><g transform="translate(2,-6) scale(1,1)"><path fill="none" stroke="#000000" d="M 944 16 L 1045 16 L 1055 26 L 1055 91 L 944 91 L 944 16 L 944 16" stroke-miterlimit="10"/></g><g transform="translate(2,-6) scale(1,1)"><path fill="none" stroke="#000000" d="M 1045 16 L 1045 26 L 1055 26 L 1045 16" stroke-miterlimit="10"/></g><g transform="translate(2,-6) scale(1,1)"><g><path fill="none" stroke="none"/><text fill="#000000" stroke="none" font-family="Arial" font-size="13px" font-style="normal" font-weight="normal" text-decoration="none" x="949" y="31">Proporciona</text><text fill="#000000" stroke="none" font-family="Arial" font-size="13px" font-style="normal" font-weight="normal" text-decoration="none" x="949" y="44">información a la</text><text fill="#000000" stroke="none" font-family="Arial" font-size="13px" font-style="normal" font-weight="normal" text-decoration="none" x="949" y="57">aplicación móvil</text></g></g><g transform="translate(2,-6) scale(1,1)"><path fill="none" stroke="#000000" d="M 1000 93 L 1000 183" stroke-miterlimit="10" stroke-dasharray="3"/></g><g transform="translate(2,-6) scale(1,1)"><rect fill="#C0C0C0" stroke="none" x="1153" y="231" width="158.4326171875" height="96" opacity="0.2"/></g><g transform="translate(2,-6) scale(1,1)"><rect fill="#ffffff" stroke="none" x="1146" y="224" width="158.4326171875" height="96"/></g><g transform="translate(2,-6) scale(1,1)"><path fill="none" stroke="#000000" d="M 1146 224 L 1304.4326171875 224 L 1304.4326171875 320 L 1146 320 L 1146 224 Z Z" stroke-miterlimit="10"/></g><g transform="translate(2,-6) scale(1,1)"><rect fill="#ffffff" stroke="none" x="1136" y="231" width="20" height="10"/></g><g transform="translate(2,-6) scale(1,1)"><path fill="none" stroke="#000000" d="M 1136 231 L 1156 231 L 1156 241 L 1136 241 L 1136 231 Z Z" stroke-miterlimit="10"/></g><g transform="translate(2,-6) scale(1,1)"><rect fill="#ffffff" stroke="none" x="1136" y="251" width="20" height="10"/></g><g transform="translate(2,-6) scale(1,1)"><path fill="none" stroke="#000000" d="M 1136 251 L 1156 251 L 1156 261 L 1136 261 L 1136 251 Z Z" stroke-miterlimit="10"/></g><g transform="translate(2,-6) scale(1,1)"><g><path fill="none" stroke="none"/><text fill="#000000" stroke="none" font-family="Arial" font-size="13px" font-style="normal" font-weight="normal" text-decoration="none" x="1190.825927734375" y="239.5">«component»</text></g></g><g transform="translate(2,-6) scale(1,1)"><g><path fill="none" stroke="none"/><text fill="#000000" stroke="none" font-family="Arial" font-size="13px" font-style="normal" font-weight="bold" text-decoration="none" x="1160.5" y="255">Interfaz Base de Datos</text></g></g><g transform="translate(2,-6) scale(1,1)"><path fill="none" stroke="#000000" d="M 1058 333 L 1135 304" stroke-miterlimit="10" stroke-dasharray="3"/></g><g transform="translate(2,-6) scale(1,1)"><path fill="none" stroke="#000000" d="M 1126.973142062855 311.52127327364815 L 1135 304 L 1124.00581098607 303.6424976559775" stroke-miterlimit="10"/></g><g transform="translate(2,-6) scale(1,1)"><path fill="none" stroke="#000000" d="M 1057 239 L 1135 255" stroke-miterlimit="10" stroke-dasharray="3"/></g><g transform="translate(2,-6) scale(1,1)"><path fill="none" stroke="#000000" d="M 1124.1987383227677 257.081524965008 L 1135 255 L 1125.8904942046925 248.83421504062485" stroke-miterlimit="10"/></g></g></svg>