<?xml version="1.0" encoding="UTF-8" standalone="no"?>
<svg
   xmlns:dc="http://purl.org/dc/elements/1.1/"
   xmlns:cc="http://creativecommons.org/ns#"
   xmlns:rdf="http://www.w3.org/1999/02/22-rdf-syntax-ns#"
   xmlns:svg="http://www.w3.org/2000/svg"
   xmlns="http://www.w3.org/2000/svg"
   xmlns:sodipodi="http://sodipodi.sourceforge.net/DTD/sodipodi-0.dtd"
   xmlns:inkscape="http://www.inkscape.org/namespaces/inkscape"
   version="1.1"
   id="svg1420"
   viewBox="0 0 225 225"
   sodipodi:docname="unillanos_lines.svg"
   inkscape:version="1.0.1 (3bc2e813f5, 2020-09-07)">
  <metadata
     id="metadata1426">
    <rdf:RDF>
      <cc:Work
         rdf:about="">
        <dc:format>image/svg+xml</dc:format>
        <dc:type
           rdf:resource="http://purl.org/dc/dcmitype/StillImage" />
      </cc:Work>
    </rdf:RDF>
  </metadata>
  <defs
     id="defs1424" />
  <sodipodi:namedview
     pagecolor="#ffffff"
     bordercolor="#666666"
     borderopacity="1"
     objecttolerance="10"
     gridtolerance="10"
     guidetolerance="10"
     inkscape:pageopacity="0"
     inkscape:pageshadow="2"
     inkscape:window-width="1366"
     inkscape:window-height="697"
     id="namedview1422"
     showgrid="false"
     inkscape:zoom="2.3555556"
     inkscape:cx="112.5"
     inkscape:cy="146.46226"
     inkscape:window-x="1352"
     inkscape:window-y="-8"
     inkscape:window-maximized="1"
     inkscape:current-layer="g1428" />
  <g
     inkscape:groupmode="layer"
     inkscape:label="Image"
     id="g1428">
    <path
       id="path1993"
       style="fill:#000000"
       d="m 135.01061,207.10604 c -10.33215,-3.6906 -14.601,-11.28712 -17.50796,-31.15578 -2.00728,-13.71951 -3.9855,-17.82999 -14.20842,-29.52322 -8.282241,-9.47342 -9.447186,-12.27408 -6.380888,-15.34038 C 99.535035,128.46497 102.97817,128.43805 108,131 c 4.69245,2.39391 9.74465,2.55713 14.21607,0.45929 3.13628,-1.47145 4.34051,-1.29608 26.78393,3.90034 12.925,2.99259 23.58762,5.36079 23.69471,5.26267 0.10709,-0.0981 -9.4971,-4.44077 -21.34265,-9.65035 -21.51133,-9.4605 -21.54155,-9.47823 -25.00661,-14.66872 -3.62205,-5.42564 -10.08542,-10.40225 -16.07889,-12.38027 -2.05532,-0.67832 -6.9654,-0.97962 -11.81553,-0.72506 -6.944959,0.36452 -8.976119,0.88381 -12.450736,3.18321 -4.951126,3.2765 -8.975846,11.01937 -8.990525,17.29623 -0.01641,7.01543 6.871229,18.59667 21.137861,35.54236 3.37112,4.00416 6.95712,9.0803 7.96888,11.2803 5.21012,11.32901 -1.60166,28.23082 -13.984732,34.69982 -4.591339,2.39854 -6.527102,2.80007 -13.49597,2.79939 -6.991826,-6.8e-4 -9.041969,-0.42947 -14.580269,-3.0495 C 55.377995,200.84458 45.619115,193.45954 37.503099,184.85614 3.1890771,148.48147 -0.07684112,92.56354 29.767762,52.414361 70.443246,-2.3053219 153.55229,-2.6557985 194.42045,51.72001 c 11.71942,15.592888 18.29456,32.207785 20.60266,52.06134 2.87445,24.72512 -4.74946,52.38989 -19.95771,72.42019 -9.24786,12.18006 -25.83819,26.29862 -35.78783,30.45585 -6.08529,2.54259 -17.79853,2.75915 -24.26696,0.44865 z m -43.690835,-4.44755 c 8.376466,-4.90894 13.904475,-14.03609 14.036585,-23.17544 0.09,-6.22825 -1.32197,-8.77534 -12.55811,-22.65357 -15.079669,-18.62554 -19.996142,-28.97818 -17.849472,-37.58572 1.509824,-6.05396 5.254221,-12.49153 8.50432,-14.62107 4.368929,-2.86263 14.437948,-4.918991 20.819822,-4.25195 10.7654,1.1252 17.80152,5.65353 26.22708,16.87929 1.45357,1.93665 9.10365,5.80125 28,14.14478 17.57531,7.76024 26.11308,12.02957 26.34899,13.17589 0.2733,1.32807 -0.1604,1.57142 -2,1.12223 -1.29195,-0.31547 -14.49727,-3.35078 -29.34516,-6.74513 -23.08965,-5.27848 -27.44113,-6.01065 -30.071,-5.05967 -4.92543,1.78106 -13.03298,1.3565 -17.48688,-0.91571 -3.07517,-1.56883 -4.42367,-1.78712 -5.960165,-0.96481 -3.289928,1.76071 -2.301158,4.09928 5.445395,12.87904 10.22301,11.58651 12.41233,15.97092 14.14688,28.33101 3.6278,25.85113 9.29146,32.73842 26.92194,32.73842 8.97733,0 13.38993,-1.54032 21.91591,-7.65023 17.65507,-12.65204 30.59914,-28.90209 38.07634,-47.8012 C 211.41142,138.07114 213.25871,126.32519 212.70518,111 211.72568,83.881128 202.4988,62.501114 183.5357,43.410082 133.82973,-6.6312317 50.992718,8.1295821 20.951294,72.381167 14.255391,86.702141 12.569064,95.074966 12.569064,114 c 0,14.06514 0.338385,17.75432 2.293097,25 2.648108,9.81594 8.277197,22.345 13.789165,30.69151 8.988098,13.61025 28.43168,30.47959 39.848674,34.57289 7.135078,2.55811 16.885236,1.87196 22.819775,-1.60591 z m -21.500179,-2.5822 C 62.269307,197.12392 52.057723,189.74399 43.88733,181.33499 31.026075,168.09814 23.240955,154.12463 18.782487,136.27432 c -3.091412,-12.37705 -3.091412,-32.17159 0,-44.548639 C 30.092236,46.444995 70.348965,16.184418 116.5,18.272415 c 48.28198,2.184405 86.34399,38.014998 91.74737,86.368595 1.97778,17.6987 -1.73699,37.50002 -10.16859,54.20292 -7.4483,14.75501 -24.8189,32.85402 -37.66166,39.24095 -14.39502,7.1589 -29.12029,3.61198 -33.82557,-8.14768 -0.88848,-2.22053 -2.32292,-8.8523 -3.18764,-14.73727 -2.1909,-14.9105 -5.1446,-20.81585 -16.8216,-33.63158 -4.3028,-4.7224 -4.5174,-6.03855 -0.83231,-5.10439 6.07524,1.54005 10.82192,1.72006 15.66309,0.59401 4.73035,-1.10027 7.23319,-0.75826 35.70749,4.87941 16.84132,3.33444 31.57882,6.06262 32.75,6.06262 6.00998,0 0.22992,-3.79836 -26.62058,-17.4937 -16.5092,-8.42067 -29.36316,-15.58856 -30.19014,-16.83525 -0.79208,-1.19408 -3.97364,-4.69594 -7.07015,-7.78191 C 118.03254,97.959031 111.70075,95.684311 99,96.192983 c -8.181426,0.327671 -10.235713,0.782959 -14.800634,3.280236 -9.098122,4.977201 -15.05654,16.229601 -13.922342,26.292171 0.699456,6.20556 6.619081,17.38546 14.761341,27.87851 3.779625,4.87085 8.917203,11.48819 11.41684,14.70518 3.910405,5.03263 4.543435,6.49829 4.535025,10.5 -0.0111,5.30591 -3.468465,13.49643 -7.107885,16.83885 -3.604094,3.30998 -10.899806,6.27114 -15.382345,6.24333 -2.2,-0.0136 -6.106182,-0.84838 -8.680404,-1.85497 z m 19.995495,-4.74882 c 5.72033,-4.36311 10.096302,-13.56006 8.837798,-18.57433 -0.33517,-1.33543 -4.638905,-7.42548 -9.563854,-13.53344 -19.898007,-24.67768 -24.124243,-35.59205 -19.420912,-50.15507 1.968462,-6.09499 8.019503,-13.354459 13.433831,-16.116643 9.482009,-4.83736 25.349696,-4.812312 35.406056,0.05589 5.43223,2.6297 12.70068,8.979683 15.54339,13.579293 1.89248,3.06209 5.97404,5.42381 31.06368,17.97439 L 194,143.00667 v 3.42928 c 0,2.42052 -0.52804,3.59687 -1.79508,3.99901 -0.98729,0.31335 -16.35794,-2.29102 -34.157,-5.78749 -31.11678,-6.11264 -32.53864,-6.30264 -36.95492,-4.93836 -2.52615,0.78038 -6.25885,1.2108 -8.2949,0.95649 l -3.70189,-0.46238 5.11962,6.14839 c 7.01973,8.43033 9.44575,14.2578 11.31351,27.17589 2.81663,19.48079 7.72673,25.6185 20.59145,25.73968 7.55863,0.0712 15.84867,-3.94179 25.9527,-12.56303 17.76628,-15.15902 28.74469,-33.93579 33.00274,-56.44576 C 206.83714,120.94944 205.73969,98.309548 203.10051,89.5 198.22619,73.229575 189.19279,58.282249 177.34287,46.879501 145.53582,16.272729 97.654172,11.799792 60.80229,35.992683 17.478809,64.434115 5.7537005,122.75939 34.628201,166.19284 44.656477,181.27752 64.055389,197.03226 75,198.98061 c 4.843849,0.8623 10.830418,-0.61389 14.815091,-3.65314 z M 38.75,101.29321 C 26.001849,98.799753 26,98.798981 26,95.964796 26,91.630743 27.724862,88 29.783846,88 c 1.008341,0 5.532435,1.35 10.053542,3 C 49.307077,94.456008 49,94.398307 49,92.721699 49,92.007851 44.79738,89.966095 39.482436,88.097789 34.247776,86.257704 29.746343,84.398591 29.479251,83.966427 28.546755,82.457617 32.885633,74 34.59217,74 c 1.277054,0 24.409877,11.967268 26.292271,13.60174 0.211442,0.183595 -0.659986,3.94831 -1.936508,8.366034 C 56.216168,105.42173 57.767071,105.01282 38.75,101.29321 Z M 56.345662,88.260543 C 53.480381,86.160829 36.247376,77 35.162754,77 c -0.531907,0 -1.424051,1.310799 -1.982542,2.912888 l -1.015438,2.912887 9.667613,3.460404 c 10.140962,3.629832 11.711815,5.21974 8.924023,9.032273 -1.253065,1.713668 -1.804083,1.628373 -11.011322,-1.704512 -5.330738,-1.929648 -9.866922,-3.194686 -10.080411,-2.811195 -0.213488,0.38349 -0.670819,1.882438 -1.016291,3.330995 -0.626589,2.627275 -0.604224,2.637959 9.111741,4.352687 C 43.117057,99.431849 49.075,100.5177 51,100.89943 l 3.5,0.69406 1.845662,-5.990214 c 1.794215,-5.823237 1.794215,-6.027909 0,-7.342733 z m 109.465678,7.275226 c -1.79959,-5.659206 -4.11432,-10.329904 -7,-14.124693 -2.37124,-3.118272 -4.74628,-6.266196 -5.27788,-6.995387 -1.15387,-1.58278 0.34503,-3.305541 12.7587,-14.664173 l 8.79216,-8.044914 3.06284,2.896699 c 3.70056,3.499824 10.85294,13.775608 10.85258,15.59183 -1.5e-4,0.717678 -4.2685,3.706154 -9.48524,6.641059 -7.90124,4.44519 -9.26248,5.558684 -8.15246,6.668707 0.73288,0.732884 1.90744,3.385926 2.61011,5.895649 0.70268,2.509723 1.66175,4.325716 2.13127,4.03554 0.46951,-0.290176 -0.02,-2.826934 -1.08785,-5.63724 -1.06784,-2.810307 -1.7413,-5.433609 -1.49659,-5.829562 C 174.46607,80.436874 187.95179,73 189.78352,73 c 1.48916,0 2.66971,1.862153 5.13389,8.098003 1.76002,4.453901 3.45338,10.237095 3.76302,12.851541 0.51841,4.377178 0.37521,4.803799 -1.80872,5.388343 -5.82782,1.559853 -6.54144,1.061733 -8.41972,-5.877171 -0.97355,-3.596606 -2.16656,-6.784311 -2.65113,-7.083789 -0.48456,-0.299477 -0.64163,0.5057 -0.34903,1.789284 1.8216,7.991143 2.37038,11.312435 1.97492,11.952309 -0.54548,0.8826 -13.41235,3.88328 -16.62416,3.87692 -2.00888,-0.004 -2.64555,-1.08307 -4.99125,-8.459671 z m 13.52479,4.444322 c 5.46439,-1.08391 5.79756,-1.311273 5.23077,-3.569556 -0.33294,-1.326551 -0.87666,-4.391353 -1.20827,-6.810671 -0.52825,-3.854038 -0.32682,-4.546519 1.62659,-5.591953 2.86884,-1.535359 3.38971,-0.862892 5.48644,7.083263 1.58935,6.023273 1.94151,6.552501 4.08723,6.142319 2.03387,-0.388799 2.26974,-0.869294 1.76283,-3.591174 -0.32187,-1.728276 -1.90561,-6.62197 -3.51942,-10.874876 l -2.93422,-7.732557 -4.76052,2.732557 c -9.69128,5.562832 -9.42815,5.238392 -7.66439,9.450438 2.10576,5.028777 1.9579,7.497106 -0.52882,8.827956 -2.58576,1.383856 -3.01914,0.963794 -5.02094,-4.866553 -1.25081,-3.643074 -2.02587,-4.60287 -3.5,-4.334215 -1.04137,0.189788 -2.01168,0.458055 -2.15623,0.596149 -0.14454,0.138093 0.75031,3.466563 1.98858,7.396598 1.66265,5.276974 2.64662,7.034954 3.76281,6.722724 0.83129,-0.23254 4.13769,-0.94374 7.34756,-1.580449 z M 174.91658,76.460887 C 181.01246,72.864374 186,69.640009 186,69.295631 c 0,-0.344379 -2.33367,-3.695798 -5.18594,-7.447599 -6.00845,-7.903356 -4.27903,-8.311073 -16.97811,4.002666 l -7.66406,7.431496 3.62751,4.858903 C 161.79453,80.813494 163.51831,83 163.63003,83 c 0.11172,0 5.19066,-2.942601 11.28655,-6.539113 z M 164.2,75.8 c -2.27701,-2.277014 -1.18233,-4.570415 4.14237,-8.67839 6.0524,-4.669394 6.70216,-4.834879 9.00264,-2.292869 2.78464,3.076988 1.89963,4.877843 -4.22582,8.598855 C 166.63604,77.365904 165.94872,77.548722 164.2,75.8 Z m 7.17405,-4.385495 c 4.6273,-2.586251 5.49551,-3.759051 3.63432,-4.909334 C 173.96052,65.857564 166,71.744814 166,73.167365 c 0,1.19275 0.24922,1.111462 5.37405,-1.75286 z M 48.984998,79.015108 c -6.316749,-3.84169 -11.882034,-7.586373 -12.3673,-8.321518 -0.587818,-0.890505 0.06242,-2.764204 1.94819,-5.613789 2.611496,-3.946237 3.09485,-4.234263 6.247278,-3.722694 3.22809,0.523847 3.327597,0.455915 1.80181,-1.23006 C 45.726739,59.145556 45,57.970428 45,57.51565 45,55.864713 50.140113,50 51.587072,50 52.946352,50 70.452617,67.41855 72.29118,70.60037 73.330804,72.399544 69.207562,78 66.843326,78 65.7165,78 65.26272,78.521063 65.607372,79.419212 66.25033,81.094733 63.278165,86 61.619988,86 60.987492,86 55.301746,82.856799 48.984998,79.015108 Z m 13.61493,2.823205 c 0.42745,-0.691629 -0.76257,-2.349411 -2.940983,-4.096995 C 57.646525,76.126899 56,74.174658 56,73.403005 c 0,-1.77662 -0.02862,-1.779264 5.858476,0.541211 4.842402,1.908697 4.963886,1.909553 6.649587,0.04687 1.648621,-1.821706 1.363772,-2.277899 -7.145496,-11.443716 -4.874412,-5.250506 -9.130323,-9.5466 -9.457579,-9.546875 -0.327257,-2.75e-4 -1.445991,0.93982 -2.486075,2.089101 -1.87185,2.06837 -1.853104,2.124387 1.845012,5.513458 4.289897,3.931397 5.053369,6.934034 1.486075,5.844539 -1.2375,-0.377947 -3.760305,-1.305284 -5.606234,-2.060748 -3.8797,-1.587805 -4.621587,-1.297314 -6.636155,2.598433 l -1.478167,2.858458 10.735278,6.572558 c 5.904403,3.614907 11.04622,6.575066 11.426261,6.57813 0.380041,0.0031 1.014066,-0.517188 1.408945,-1.156116 z M 147.57785,69.08126 c -1.53798,-1.605306 -2.4988,-3.400152 -2.13515,-3.988545 0.40812,-0.660361 0.0603,-0.839241 -0.90872,-0.46738 C 142.75021,65.309832 137,63.213484 137,61.87868 137,61.395406 135.96101,61 134.69113,61 c -1.26988,0 -3.09643,-0.575876 -4.059,-1.279724 -1.44276,-1.05497 -1.56414,-1.768913 -0.69113,-4.0651 C 131.32831,52.006275 131.3267,52 129,52 c -1.52305,0 -2,0.666667 -2,2.795523 v 2.795523 L 113.25,57.44044 c -7.5625,-0.08283 -13.975,0.162427 -14.25,0.545023 -0.275,0.382596 -2.525,1.407508 -5,2.277584 -9.166132,3.222314 -11.35851,4.300771 -14.302942,7.035794 -1.657226,1.539362 -3.802249,2.664362 -4.766719,2.5 C 72.769754,69.43064 56,49.140982 56,46.895101 56,45.469029 62.543553,40 64.249812,40 c 0.35327,0 3.900757,4.490826 7.883303,9.979613 3.982545,5.488788 7.384583,9.836023 7.560082,9.660523 0.1755,-0.1755 -1.933674,-5.09495 -4.687053,-10.932111 C 72.252765,42.870864 70,37.607637 70,37.011965 70,36.019692 78.034455,32 80.017785,32 c 0.468586,0 2.334473,4.522884 4.146414,10.050853 3.195008,9.747503 3.370517,10.02871 5.81512,9.31722 1.386375,-0.403498 3.791931,-0.763882 5.345681,-0.800853 2.520949,-0.05998 2.767219,-0.356125 2.288146,-2.75149 -1.284672,-6.423361 -2.965266,-19.796943 -2.541092,-20.221118 0.255316,-0.255315 2.753174,-0.767852 5.550796,-1.138969 4.76221,-0.631729 5.12687,-0.524286 5.71821,1.684799 0.3474,1.297757 0.63778,5.585254 0.64529,9.527771 C 107.00488,47.398195 107.32938,48 112.5573,48 c 3.00934,0 4.62902,0.510516 5.27353,1.662196 0.64837,1.158565 1.15517,-1.492611 1.67267,-8.75 1.00598,-14.108003 1.47011,-15.176873 6.23948,-14.369296 6.8713,1.163489 19.10224,4.623435 20.84268,5.896077 1.96815,1.439145 1.83989,1.937218 -3.94267,15.311023 -1.96192,4.5375 -3.39417,8.25 -3.18277,8.25 0.2114,0 2.91883,-4.725 6.0165,-10.5 3.09768,-5.775 6.00096,-10.5 6.45175,-10.5 0.4508,0 2.94498,1.187882 5.54263,2.639738 4.35662,2.434964 4.67612,2.874157 4.11863,5.661615 -0.57601,2.880056 -0.51821,2.943895 1.23169,1.360262 C 163.83125,43.747727 164.94389,43 165.29394,43 166.48528,43 173,49.202312 173,50.336518 173,51.782755 152.89329,72 151.45496,72 c -0.59443,0 -2.33913,-1.313433 -3.87711,-2.91874 z m 13.92782,-9.838989 8.69681,-9.257728 -2.35124,-1.951681 -2.35124,-1.95168 -2.7231,3.209409 C 161.2792,51.055766 160.0417,52.8375 160.0269,53.25 160.01211,53.6625 159.1,54 158,54 c -1.1,0 -1.99513,-0.1125 -1.98918,-0.25 0.006,-0.1375 0.68096,-2.459019 1.5,-5.158931 0.81905,-2.699912 1.48633,-5.399912 1.48286,-6 -0.006,-0.992354 -5.98499,-5.03133 -6.47267,-4.372292 -0.29912,0.404223 -10.00483,17.871708 -11.3497,20.426218 -0.88372,1.678556 -0.82104,2.400817 0.28824,3.321435 1.14945,0.953961 1.92706,0.40648 4.11187,-2.894994 C 147.05332,56.832146 148.88097,55 149.63289,55 c 1.74113,0 1.71735,0.615817 -0.24626,6.378717 -1.53139,4.494366 -1.51868,4.806613 0.25,6.144286 1.02485,0.77511 2.15786,1.312025 2.5178,1.193144 0.35994,-0.118881 4.56799,-4.382125 9.35124,-9.473876 z m -84.029606,6.39889 C 79.222431,64.364186 78.868211,63.64264 71.596478,53.664443 63.877261,43.072213 63.8527,43.050409 61.429284,44.638292 60.093178,45.513742 59,46.664844 59,47.196296 c 0,1.068933 15.167577,19.756213 16.05887,19.785402 0.307379,0.01007 1.395116,-0.593176 2.417194,-1.340537 z m 13.048634,-6.907757 c 4.772642,-1.769257 5.94812,-2.619169 5.656215,-4.089647 -0.304275,-1.532797 -0.918445,-1.731017 -3.524698,-1.137574 -6.852626,1.56034 -6.725725,1.663666 -10.054145,-8.186338 -1.706138,-5.049085 -3.401029,-9.473044 -3.766424,-9.83102 -0.536774,-0.525877 -4.181009,0.803757 -5.676985,2.071302 -0.492159,0.417007 10.101905,23.443117 10.776797,23.423277 0.310498,-0.0091 3.275656,-1.021628 6.58924,-2.25 z M 140.40281,46.524559 C 142.93126,40.488066 145,35.218647 145,34.814739 c 0,-0.943125 -11.27114,-4.432935 -17.17807,-5.318733 l -4.53976,-0.680779 -0.61948,4.842386 c -0.34072,2.663313 -0.91324,8.486965 -1.27227,12.941449 -0.61524,7.63312 -0.53337,8.130293 1.42309,8.64192 1.73731,0.454316 2.12569,0.0304 2.38119,-2.599062 0.27947,-2.876127 0.58949,-3.128441 3.66464,-2.98258 4.47917,0.212456 5.46263,1.363614 4.13907,4.844852 -0.82132,2.160234 -0.77294,3.017124 0.20448,3.621199 1.7933,1.10832 2.04935,0.695758 7.19992,-11.600832 z M 130.25,44.88122 c -2.80515,-0.809957 -3.2479,-1.379342 -3.23469,-4.159812 0.0236,-4.966611 1.19811,-6.110736 5.5483,-5.404798 5.21131,0.845679 5.80109,1.734098 4.3551,6.560385 -1.30746,4.363914 -1.56221,4.478675 -6.66871,3.004225 z m 4.27392,-3.956581 c 0.75543,-2.380162 0.70955,-2.451148 -2.15187,-3.329061 -1.71466,-0.526076 -2.22053,-0.168541 -2.60466,1.840886 -0.71195,3.724348 3.61693,5.078727 4.75653,1.488175 z M 115,52.472732 C 115,50.36298 114.49066,50.0769 110.25,49.804791 105.9955,49.531794 105.47907,49.239213 105.29933,47 105.18896,45.625 104.81307,41.0125 104.46401,36.75 L 103.82936,29 h -3.52309 c -3.145749,0 -3.465667,0.240984 -2.986985,2.25 0.294855,1.2375 1.311777,7.2 2.259825,13.25 l 1.72372,11 6.84859,-0.332059 C 114.59047,54.855738 115,54.69457 115,52.472732 Z m -4.79037,65.851528 c -6.89177,-2.43816 -9.23768,-8.52616 -3.8103,-9.88835 2.9624,-0.74351 6.67128,0.80918 10.98958,4.60069 4.69286,4.12039 4.84355,6.99334 0.36109,6.88445 -1.7875,-0.0434 -5.18066,-0.76197 -7.54037,-1.59679 z M 117.45296,116.75 C 116.1673,113.43149 106,109.106 106,111.87756 c 0,1.91284 2.64218,3.27818 11.71862,6.05554 0.12023,0.0368 6.9e-4,-0.4956 -0.26566,-1.1831 z"
       sodipodi:nodetypes="sssssssssssssssssssssssssssssssssssssssssssssssssssssssssssssssssssssssssssscscssssssssscssssscssssssssssssssssssssssssscssssssscsssssscsssssssssssssssssssssssssscssssssssssssscsssssssssssssssssssssssssssssssssssscscssssssssssscssssssssssssssssssssssssssssssssssssscccssscscssssssssssssssssssssscsssscssssssssssssssssssssscssscsssssssssss" />
  </g>
</svg>
